
<svg viewBox="0 0 24 24" shape-rendering="crispEdges" xmlns="http://www.w3.org/2000/svg"
    xmlnsXlink="http://www.w3.org/1999/xlink" version="1.1" style="">
    <rect width="100%" height="100%" fill="#D3F6D3" rx="2" ry="2" x="0" y="0"></rect><svg id="qrcode"
        viewBox="0 0 25 25" shape-rendering="crispEdges" xmlns="http://www.w3.org/2000/svg"
        xmlnsXlink="http://www.w3.org/1999/xlink" version="1.1" style="max-width: 100%; height: auto;">
        <g style="transform: scale(0.85) translate(2.2619px, 2.2619px);">
            <rect width="100%" height="100%" fill="#D3F6D3" x="0" y="0"></rect>
            <g transform="translate(8,0)" fill="#000000">
                <rect width="1" height="1"></rect>
            </g>
            <g transform="translate(9,0)" fill="#000000">
                <rect width="1" height="1"></rect>
            </g>
            <g transform="translate(10,0)" fill="#000000">
                <rect width="1" height="1"></rect>
            </g>
            <g transform="translate(11,0)" fill="#000000">
                <rect width="1" height="1"></rect>
            </g>
            <g transform="translate(12,0)" fill="#000000">
                <rect width="1" height="1"></rect>
            </g>
            <g transform="translate(13,0)" fill="#000000">
                <rect width="1" height="1"></rect>
            </g>
            <g transform="translate(8,1)" fill="#000000">
                <rect width="1" height="1"></rect>
            </g>
            <g transform="translate(9,1)" fill="#000000">
                <rect width="1" height="1"></rect>
            </g>
            <g transform="translate(10,1)" fill="#000000">
                <rect width="1" height="1"></rect>
            </g>
            <g transform="translate(11,1)" fill="#000000">
                <rect width="1" height="1"></rect>
            </g>
            <g transform="translate(12,1)" fill="#000000">
                <rect width="1" height="1"></rect>
            </g>
            <g transform="translate(13,1)" fill="#000000">
                <rect width="1" height="1"></rect>
            </g>
            <g transform="translate(16,1)" fill="#000000">
                <rect width="1" height="1"></rect>
            </g>
            <g transform="translate(8,2)" fill="#000000">
                <rect width="1" height="1"></rect>
            </g>
            <g transform="translate(9,2)" fill="#000000">
                <rect width="1" height="1"></rect>
            </g>
            <g transform="translate(11,2)" fill="#000000">
                <rect width="1" height="1"></rect>
            </g>
            <g transform="translate(12,2)" fill="#000000">
                <rect width="1" height="1"></rect>
            </g>
            <g transform="translate(13,2)" fill="#000000">
                <rect width="1" height="1"></rect>
            </g>
            <g transform="translate(14,2)" fill="#000000">
                <rect width="1" height="1"></rect>
            </g>
            <g transform="translate(15,2)" fill="#000000">
                <rect width="1" height="1"></rect>
            </g>
            <g transform="translate(16,2)" fill="#000000">
                <rect width="1" height="1"></rect>
            </g>
            <g transform="translate(0,0)" fill="#000000">
                <g transform="scale(0.5)">
                    <path
                        d="M4.5,14h5.1C12,14,14,12,14,9.6V4.5C14,2,12,0,9.5,0H4.4C2,0,0,2,0,4.4v5.1C0,12,2,14,4.5,14z M12,4.8v4.4 c0,1.5-1.3,2.8-2.8,2.8H4.8C3.2,12,2,10.8,2,9.2V4.8C2,3.3,3.3,2,4.8,2h4.4C10.8,2,12,3.2,12,4.8z">
                    </path>
                </g>
            </g>
            <g transform="translate(2,2)" fill="#000000">
                <g transform="scale(0.5) ">
                    <path
                        d="M6,1.7v2.7C6,5.2,5.2,6,4.3,6H1.7C0.7,6,0,5.3,0,4.3V1.7C0,0.8,0.8,0,1.7,0h2.7C5.3,0,6,0.7,6,1.7z">
                    </path>
                </g>
            </g>
            <g transform="translate(10,3)" fill="#000000">
                <rect width="1" height="1"></rect>
            </g>
            <g transform="translate(12,3)" fill="#000000">
                <rect width="1" height="1"></rect>
            </g>
            <g transform="translate(13,3)" fill="#000000">
                <rect width="1" height="1"></rect>
            </g>
            <g transform="translate(15,3)" fill="#000000">
                <rect width="1" height="1"></rect>
            </g>
            <g transform="translate(16,3)" fill="#000000">
                <rect width="1" height="1"></rect>
            </g>
            <g transform="translate(18,0)" fill="#000000">
                <g transform="scale(0.5)">
                    <path
                        d="M4.5,14h5.1C12,14,14,12,14,9.6V4.5C14,2,12,0,9.5,0H4.4C2,0,0,2,0,4.4v5.1C0,12,2,14,4.5,14z M12,4.8v4.4 c0,1.5-1.3,2.8-2.8,2.8H4.8C3.2,12,2,10.8,2,9.2V4.8C2,3.3,3.3,2,4.8,2h4.4C10.8,2,12,3.2,12,4.8z">
                    </path>
                </g>
            </g>
            <g transform="translate(20,2)" fill="#000000">
                <g transform="scale(0.5) ">
                    <path
                        d="M6,1.7v2.7C6,5.2,5.2,6,4.3,6H1.7C0.7,6,0,5.3,0,4.3V1.7C0,0.8,0.8,0,1.7,0h2.7C5.3,0,6,0.7,6,1.7z">
                    </path>
                </g>
            </g>
            <g transform="translate(8,4)" fill="#000000">
                <rect width="1" height="1"></rect>
            </g>
            <g transform="translate(12,4)" fill="#000000">
                <rect width="1" height="1"></rect>
            </g>
            <g transform="translate(13,4)" fill="#000000">
                <rect width="1" height="1"></rect>
            </g>
            <g transform="translate(14,4)" fill="#000000">
                <rect width="1" height="1"></rect>
            </g>
            <g transform="translate(16,4)" fill="#000000">
                <rect width="1" height="1"></rect>
            </g>
            <g transform="translate(9,5)" fill="#000000">
                <rect width="1" height="1"></rect>
            </g>
            <g transform="translate(14,5)" fill="#000000">
                <rect width="1" height="1"></rect>
            </g>
            <g transform="translate(16,5)" fill="#000000">
                <rect width="1" height="1"></rect>
            </g>
            <g transform="translate(8,6)" fill="#000000">
                <rect width="1" height="1"></rect>
            </g>
            <g transform="translate(10,6)" fill="#000000">
                <rect width="1" height="1"></rect>
            </g>
            <g transform="translate(12,6)" fill="#000000">
                <rect width="1" height="1"></rect>
            </g>
            <g transform="translate(14,6)" fill="#000000">
                <rect width="1" height="1"></rect>
            </g>
            <g transform="translate(16,6)" fill="#000000">
                <rect width="1" height="1"></rect>
            </g>
            <g transform="translate(9,7)" fill="#000000">
                <rect width="1" height="1"></rect>
            </g>
            <g transform="translate(13,7)" fill="#000000">
                <rect width="1" height="1"></rect>
            </g>
            <g transform="translate(16,7)" fill="#000000">
                <rect width="1" height="1"></rect>
            </g>
            <g transform="translate(0,8)" fill="#000000">
                <rect width="1" height="1"></rect>
            </g>
            <g transform="translate(3,8)" fill="#000000">
                <rect width="1" height="1"></rect>
            </g>
            <g transform="translate(4,8)" fill="#000000">
                <rect width="1" height="1"></rect>
            </g>
            <g transform="translate(5,8)" fill="#000000">
                <rect width="1" height="1"></rect>
            </g>
            <g transform="translate(6,8)" fill="#000000">
                <rect width="1" height="1"></rect>
            </g>
            <g transform="translate(7,8)" fill="#000000">
                <rect width="1" height="1"></rect>
            </g>
            <g transform="translate(8,8)" fill="#000000">
                <rect width="1" height="1"></rect>
            </g>
            <g transform="translate(9,8)" fill="#000000">
                <rect width="1" height="1"></rect>
            </g>
            <g transform="translate(11,8)" fill="#000000">
                <rect width="1" height="1"></rect>
            </g>
            <g transform="translate(15,8)" fill="#000000">
                <rect width="1" height="1"></rect>
            </g>
            <g transform="translate(16,8)" fill="#000000">
                <rect width="1" height="1"></rect>
            </g>
            <g transform="translate(17,8)" fill="#000000">
                <rect width="1" height="1"></rect>
            </g>
            <g transform="translate(20,8)" fill="#000000">
                <rect width="1" height="1"></rect>
            </g>
            <g transform="translate(22,8)" fill="#000000">
                <rect width="1" height="1"></rect>
            </g>
            <g transform="translate(23,8)" fill="#000000">
                <rect width="1" height="1"></rect>
            </g>
            <g transform="translate(24,8)" fill="#000000">
                <rect width="1" height="1"></rect>
            </g>
            <g transform="translate(0,9)" fill="#000000">
                <rect width="1" height="1"></rect>
            </g>
            <g transform="translate(2,9)" fill="#000000">
                <rect width="1" height="1"></rect>
            </g>
            <g transform="translate(3,9)" fill="#000000">
                <rect width="1" height="1"></rect>
            </g>
            <g transform="translate(4,9)" fill="#000000">
                <rect width="1" height="1"></rect>
            </g>
            <g transform="translate(7,9)" fill="#000000">
                <rect width="1" height="1"></rect>
            </g>
            <g transform="translate(9,9)" fill="#000000">
                <rect width="1" height="1"></rect>
            </g>
            <g transform="translate(10,9)" fill="#000000">
                <rect width="1" height="1"></rect>
            </g>
            <g transform="translate(12,9)" fill="#000000">
                <rect width="1" height="1"></rect>
            </g>
            <g transform="translate(14,9)" fill="#000000">
                <rect width="1" height="1"></rect>
            </g>
            <g transform="translate(15,9)" fill="#000000">
                <rect width="1" height="1"></rect>
            </g>
            <g transform="translate(17,9)" fill="#000000">
                <rect width="1" height="1"></rect>
            </g>
            <g transform="translate(20,9)" fill="#000000">
                <rect width="1" height="1"></rect>
            </g>
            <g transform="translate(21,9)" fill="#000000">
                <rect width="1" height="1"></rect>
            </g>
            <g transform="translate(22,9)" fill="#000000">
                <rect width="1" height="1"></rect>
            </g>
            <g transform="translate(0,10)" fill="#000000">
                <rect width="1" height="1"></rect>
            </g>
            <g transform="translate(3,10)" fill="#000000">
                <rect width="1" height="1"></rect>
            </g>
            <g transform="translate(6,10)" fill="#000000">
                <rect width="1" height="1"></rect>
            </g>
            <g transform="translate(7,10)" fill="#000000">
                <rect width="1" height="1"></rect>
            </g>
            <g transform="translate(10,10)" fill="#000000">
                <rect width="1" height="1"></rect>
            </g>
            <g transform="translate(14,10)" fill="#000000">
                <rect width="1" height="1"></rect>
            </g>
            <g transform="translate(15,10)" fill="#000000">
                <rect width="1" height="1"></rect>
            </g>
            <g transform="translate(16,10)" fill="#000000">
                <rect width="1" height="1"></rect>
            </g>
            <g transform="translate(19,10)" fill="#000000">
                <rect width="1" height="1"></rect>
            </g>
            <g transform="translate(20,10)" fill="#000000">
                <rect width="1" height="1"></rect>
            </g>
            <g transform="translate(24,10)" fill="#000000">
                <rect width="1" height="1"></rect>
            </g>
            <g transform="translate(3,11)" fill="#000000">
                <rect width="1" height="1"></rect>
            </g>
            <g transform="translate(4,11)" fill="#000000">
                <rect width="1" height="1"></rect>
            </g>
            <g transform="translate(5,11)" fill="#000000">
                <rect width="1" height="1"></rect>
            </g>
            <g transform="translate(7,11)" fill="#000000">
                <rect width="1" height="1"></rect>
            </g>
            <g transform="translate(8,11)" fill="#000000">
                <rect width="1" height="1"></rect>
            </g>
            <g transform="translate(9,11)" fill="#000000">
                <rect width="1" height="1"></rect>
            </g>
            <g transform="translate(12,11)" fill="#000000">
                <rect width="1" height="1"></rect>
            </g>
            <g transform="translate(17,11)" fill="#000000">
                <rect width="1" height="1"></rect>
            </g>
            <g transform="translate(19,11)" fill="#000000">
                <rect width="1" height="1"></rect>
            </g>
            <g transform="translate(20,11)" fill="#000000">
                <rect width="1" height="1"></rect>
            </g>
            <g transform="translate(21,11)" fill="#000000">
                <rect width="1" height="1"></rect>
            </g>
            <g transform="translate(22,11)" fill="#000000">
                <rect width="1" height="1"></rect>
            </g>
            <g transform="translate(24,11)" fill="#000000">
                <rect width="1" height="1"></rect>
            </g>
            <g transform="translate(3,12)" fill="#000000">
                <rect width="1" height="1"></rect>
            </g>
            <g transform="translate(6,12)" fill="#000000">
                <rect width="1" height="1"></rect>
            </g>
            <g transform="translate(10,12)" fill="#000000">
                <rect width="1" height="1"></rect>
            </g>
            <g transform="translate(11,12)" fill="#000000">
                <rect width="1" height="1"></rect>
            </g>
            <g transform="translate(13,12)" fill="#000000">
                <rect width="1" height="1"></rect>
            </g>
            <g transform="translate(15,12)" fill="#000000">
                <rect width="1" height="1"></rect>
            </g>
            <g transform="translate(16,12)" fill="#000000">
                <rect width="1" height="1"></rect>
            </g>
            <g transform="translate(17,12)" fill="#000000">
                <rect width="1" height="1"></rect>
            </g>
            <g transform="translate(18,12)" fill="#000000">
                <rect width="1" height="1"></rect>
            </g>
            <g transform="translate(19,12)" fill="#000000">
                <rect width="1" height="1"></rect>
            </g>
            <g transform="translate(21,12)" fill="#000000">
                <rect width="1" height="1"></rect>
            </g>
            <g transform="translate(24,12)" fill="#000000">
                <rect width="1" height="1"></rect>
            </g>
            <g transform="translate(0,13)" fill="#000000">
                <rect width="1" height="1"></rect>
            </g>
            <g transform="translate(2,13)" fill="#000000">
                <rect width="1" height="1"></rect>
            </g>
            <g transform="translate(4,13)" fill="#000000">
                <rect width="1" height="1"></rect>
            </g>
            <g transform="translate(5,13)" fill="#000000">
                <rect width="1" height="1"></rect>
            </g>
            <g transform="translate(7,13)" fill="#000000">
                <rect width="1" height="1"></rect>
            </g>
            <g transform="translate(8,13)" fill="#000000">
                <rect width="1" height="1"></rect>
            </g>
            <g transform="translate(10,13)" fill="#000000">
                <rect width="1" height="1"></rect>
            </g>
            <g transform="translate(12,13)" fill="#000000">
                <rect width="1" height="1"></rect>
            </g>
            <g transform="translate(13,13)" fill="#000000">
                <rect width="1" height="1"></rect>
            </g>
            <g transform="translate(15,13)" fill="#000000">
                <rect width="1" height="1"></rect>
            </g>
            <g transform="translate(16,13)" fill="#000000">
                <rect width="1" height="1"></rect>
            </g>
            <g transform="translate(19,13)" fill="#000000">
                <rect width="1" height="1"></rect>
            </g>
            <g transform="translate(20,13)" fill="#000000">
                <rect width="1" height="1"></rect>
            </g>
            <g transform="translate(21,13)" fill="#000000">
                <rect width="1" height="1"></rect>
            </g>
            <g transform="translate(0,14)" fill="#000000">
                <rect width="1" height="1"></rect>
            </g>
            <g transform="translate(1,14)" fill="#000000">
                <rect width="1" height="1"></rect>
            </g>
            <g transform="translate(2,14)" fill="#000000">
                <rect width="1" height="1"></rect>
            </g>
            <g transform="translate(6,14)" fill="#000000">
                <rect width="1" height="1"></rect>
            </g>
            <g transform="translate(7,14)" fill="#000000">
                <rect width="1" height="1"></rect>
            </g>
            <g transform="translate(8,14)" fill="#000000">
                <rect width="1" height="1"></rect>
            </g>
            <g transform="translate(9,14)" fill="#000000">
                <rect width="1" height="1"></rect>
            </g>
            <g transform="translate(13,14)" fill="#000000">
                <rect width="1" height="1"></rect>
            </g>
            <g transform="translate(15,14)" fill="#000000">
                <rect width="1" height="1"></rect>
            </g>
            <g transform="translate(18,14)" fill="#000000">
                <rect width="1" height="1"></rect>
            </g>
            <g transform="translate(19,14)" fill="#000000">
                <rect width="1" height="1"></rect>
            </g>
            <g transform="translate(21,14)" fill="#000000">
                <rect width="1" height="1"></rect>
            </g>
            <g transform="translate(22,14)" fill="#000000">
                <rect width="1" height="1"></rect>
            </g>
            <g transform="translate(23,14)" fill="#000000">
                <rect width="1" height="1"></rect>
            </g>
            <g transform="translate(24,14)" fill="#000000">
                <rect width="1" height="1"></rect>
            </g>
            <g transform="translate(0,15)" fill="#000000">
                <rect width="1" height="1"></rect>
            </g>
            <g transform="translate(2,15)" fill="#000000">
                <rect width="1" height="1"></rect>
            </g>
            <g transform="translate(7,15)" fill="#000000">
                <rect width="1" height="1"></rect>
            </g>
            <g transform="translate(8,15)" fill="#000000">
                <rect width="1" height="1"></rect>
            </g>
            <g transform="translate(9,15)" fill="#000000">
                <rect width="1" height="1"></rect>
            </g>
            <g transform="translate(10,15)" fill="#000000">
                <rect width="1" height="1"></rect>
            </g>
            <g transform="translate(12,15)" fill="#000000">
                <rect width="1" height="1"></rect>
            </g>
            <g transform="translate(18,15)" fill="#000000">
                <rect width="1" height="1"></rect>
            </g>
            <g transform="translate(20,15)" fill="#000000">
                <rect width="1" height="1"></rect>
            </g>
            <g transform="translate(21,15)" fill="#000000">
                <rect width="1" height="1"></rect>
            </g>
            <g transform="translate(22,15)" fill="#000000">
                <rect width="1" height="1"></rect>
            </g>
            <g transform="translate(23,15)" fill="#000000">
                <rect width="1" height="1"></rect>
            </g>
            <g transform="translate(24,15)" fill="#000000">
                <rect width="1" height="1"></rect>
            </g>
            <g transform="translate(0,16)" fill="#000000">
                <rect width="1" height="1"></rect>
            </g>
            <g transform="translate(3,16)" fill="#000000">
                <rect width="1" height="1"></rect>
            </g>
            <g transform="translate(4,16)" fill="#000000">
                <rect width="1" height="1"></rect>
            </g>
            <g transform="translate(5,16)" fill="#000000">
                <rect width="1" height="1"></rect>
            </g>
            <g transform="translate(6,16)" fill="#000000">
                <rect width="1" height="1"></rect>
            </g>
            <g transform="translate(11,16)" fill="#000000">
                <rect width="1" height="1"></rect>
            </g>
            <g transform="translate(12,16)" fill="#000000">
                <rect width="1" height="1"></rect>
            </g>
            <g transform="translate(15,16)" fill="#000000">
                <rect width="1" height="1"></rect>
            </g>
            <g transform="translate(16,16)" fill="#000000">
                <rect width="1" height="1"></rect>
            </g>
            <g transform="translate(17,16)" fill="#000000">
                <rect width="1" height="1"></rect>
            </g>
            <g transform="translate(18,16)" fill="#000000">
                <rect width="1" height="1"></rect>
            </g>
            <g transform="translate(19,16)" fill="#000000">
                <rect width="1" height="1"></rect>
            </g>
            <g transform="translate(20,16)" fill="#000000">
                <rect width="1" height="1"></rect>
            </g>
            <g transform="translate(21,16)" fill="#000000">
                <rect width="1" height="1"></rect>
            </g>
            <g transform="translate(22,16)" fill="#000000">
                <rect width="1" height="1"></rect>
            </g>
            <g transform="translate(8,17)" fill="#000000">
                <rect width="1" height="1"></rect>
            </g>
            <g transform="translate(10,17)" fill="#000000">
                <rect width="1" height="1"></rect>
            </g>
            <g transform="translate(11,17)" fill="#000000">
                <rect width="1" height="1"></rect>
            </g>
            <g transform="translate(14,17)" fill="#000000">
                <rect width="1" height="1"></rect>
            </g>
            <g transform="translate(16,17)" fill="#000000">
                <rect width="1" height="1"></rect>
            </g>
            <g transform="translate(20,17)" fill="#000000">
                <rect width="1" height="1"></rect>
            </g>
            <g transform="translate(23,17)" fill="#000000">
                <rect width="1" height="1"></rect>
            </g>
            <g transform="translate(24,17)" fill="#000000">
                <rect width="1" height="1"></rect>
            </g>
            <g transform="translate(8,18)" fill="#000000">
                <rect width="1" height="1"></rect>
            </g>
            <g transform="translate(10,18)" fill="#000000">
                <rect width="1" height="1"></rect>
            </g>
            <g transform="translate(12,18)" fill="#000000">
                <rect width="1" height="1"></rect>
            </g>
            <g transform="translate(14,18)" fill="#000000">
                <rect width="1" height="1"></rect>
            </g>
            <g transform="translate(16,18)" fill="#000000">
                <rect width="1" height="1"></rect>
            </g>
            <g transform="translate(18,18)" fill="#000000">
                <rect width="1" height="1"></rect>
            </g>
            <g transform="translate(20,18)" fill="#000000">
                <rect width="1" height="1"></rect>
            </g>
            <g transform="translate(22,18)" fill="#000000">
                <rect width="1" height="1"></rect>
            </g>
            <g transform="translate(24,18)" fill="#000000">
                <rect width="1" height="1"></rect>
            </g>
            <g transform="translate(8,19)" fill="#000000">
                <rect width="1" height="1"></rect>
            </g>
            <g transform="translate(9,19)" fill="#000000">
                <rect width="1" height="1"></rect>
            </g>
            <g transform="translate(11,19)" fill="#000000">
                <rect width="1" height="1"></rect>
            </g>
            <g transform="translate(13,19)" fill="#000000">
                <rect width="1" height="1"></rect>
            </g>
            <g transform="translate(14,19)" fill="#000000">
                <rect width="1" height="1"></rect>
            </g>
            <g transform="translate(15,19)" fill="#000000">
                <rect width="1" height="1"></rect>
            </g>
            <g transform="translate(16,19)" fill="#000000">
                <rect width="1" height="1"></rect>
            </g>
            <g transform="translate(20,19)" fill="#000000">
                <rect width="1" height="1"></rect>
            </g>
            <g transform="translate(21,19)" fill="#000000">
                <rect width="1" height="1"></rect>
            </g>
            <g transform="translate(8,20)" fill="#000000">
                <rect width="1" height="1"></rect>
            </g>
            <g transform="translate(9,20)" fill="#000000">
                <rect width="1" height="1"></rect>
            </g>
            <g transform="translate(11,20)" fill="#000000">
                <rect width="1" height="1"></rect>
            </g>
            <g transform="translate(13,20)" fill="#000000">
                <rect width="1" height="1"></rect>
            </g>
            <g transform="translate(15,20)" fill="#000000">
                <rect width="1" height="1"></rect>
            </g>
            <g transform="translate(16,20)" fill="#000000">
                <rect width="1" height="1"></rect>
            </g>
            <g transform="translate(17,20)" fill="#000000">
                <rect width="1" height="1"></rect>
            </g>
            <g transform="translate(18,20)" fill="#000000">
                <rect width="1" height="1"></rect>
            </g>
            <g transform="translate(19,20)" fill="#000000">
                <rect width="1" height="1"></rect>
            </g>
            <g transform="translate(20,20)" fill="#000000">
                <rect width="1" height="1"></rect>
            </g>
            <g transform="translate(23,20)" fill="#000000">
                <rect width="1" height="1"></rect>
            </g>
            <g transform="translate(24,20)" fill="#000000">
                <rect width="1" height="1"></rect>
            </g>
            <g transform="translate(0,18)" fill="#000000">
                <g transform="scale(0.5)">
                    <path
                        d="M4.5,14h5.1C12,14,14,12,14,9.6V4.5C14,2,12,0,9.5,0H4.4C2,0,0,2,0,4.4v5.1C0,12,2,14,4.5,14z M12,4.8v4.4 c0,1.5-1.3,2.8-2.8,2.8H4.8C3.2,12,2,10.8,2,9.2V4.8C2,3.3,3.3,2,4.8,2h4.4C10.8,2,12,3.2,12,4.8z">
                    </path>
                </g>
            </g>
            <g transform="translate(2,20)" fill="#000000">
                <g transform="scale(0.5) ">
                    <path
                        d="M6,1.7v2.7C6,5.2,5.2,6,4.3,6H1.7C0.7,6,0,5.3,0,4.3V1.7C0,0.8,0.8,0,1.7,0h2.7C5.3,0,6,0.7,6,1.7z">
                    </path>
                </g>
            </g>
            <g transform="translate(8,21)" fill="#000000">
                <rect width="1" height="1"></rect>
            </g>
            <g transform="translate(12,21)" fill="#000000">
                <rect width="1" height="1"></rect>
            </g>
            <g transform="translate(13,21)" fill="#000000">
                <rect width="1" height="1"></rect>
            </g>
            <g transform="translate(14,21)" fill="#000000">
                <rect width="1" height="1"></rect>
            </g>
            <g transform="translate(17,21)" fill="#000000">
                <rect width="1" height="1"></rect>
            </g>
            <g transform="translate(18,21)" fill="#000000">
                <rect width="1" height="1"></rect>
            </g>
            <g transform="translate(21,21)" fill="#000000">
                <rect width="1" height="1"></rect>
            </g>
            <g transform="translate(22,21)" fill="#000000">
                <rect width="1" height="1"></rect>
            </g>
            <g transform="translate(23,21)" fill="#000000">
                <rect width="1" height="1"></rect>
            </g>
            <g transform="translate(24,21)" fill="#000000">
                <rect width="1" height="1"></rect>
            </g>
            <g transform="translate(9,22)" fill="#000000">
                <rect width="1" height="1"></rect>
            </g>
            <g transform="translate(11,22)" fill="#000000">
                <rect width="1" height="1"></rect>
            </g>
            <g transform="translate(13,22)" fill="#000000">
                <rect width="1" height="1"></rect>
            </g>
            <g transform="translate(15,22)" fill="#000000">
                <rect width="1" height="1"></rect>
            </g>
            <g transform="translate(17,22)" fill="#000000">
                <rect width="1" height="1"></rect>
            </g>
            <g transform="translate(18,22)" fill="#000000">
                <rect width="1" height="1"></rect>
            </g>
            <g transform="translate(20,22)" fill="#000000">
                <rect width="1" height="1"></rect>
            </g>
            <g transform="translate(23,22)" fill="#000000">
                <rect width="1" height="1"></rect>
            </g>
            <g transform="translate(24,22)" fill="#000000">
                <rect width="1" height="1"></rect>
            </g>
            <g transform="translate(10,23)" fill="#000000">
                <rect width="1" height="1"></rect>
            </g>
            <g transform="translate(11,23)" fill="#000000">
                <rect width="1" height="1"></rect>
            </g>
            <g transform="translate(12,23)" fill="#000000">
                <rect width="1" height="1"></rect>
            </g>
            <g transform="translate(13,23)" fill="#000000">
                <rect width="1" height="1"></rect>
            </g>
            <g transform="translate(15,23)" fill="#000000">
                <rect width="1" height="1"></rect>
            </g>
            <g transform="translate(18,23)" fill="#000000">
                <rect width="1" height="1"></rect>
            </g>
            <g transform="translate(19,23)" fill="#000000">
                <rect width="1" height="1"></rect>
            </g>
            <g transform="translate(21,23)" fill="#000000">
                <rect width="1" height="1"></rect>
            </g>
            <g transform="translate(22,23)" fill="#000000">
                <rect width="1" height="1"></rect>
            </g>
            <g transform="translate(23,23)" fill="#000000">
                <rect width="1" height="1"></rect>
            </g>
            <g transform="translate(24,23)" fill="#000000">
                <rect width="1" height="1"></rect>
            </g>
            <g transform="translate(8,24)" fill="#000000">
                <rect width="1" height="1"></rect>
            </g>
            <g transform="translate(11,24)" fill="#000000">
                <rect width="1" height="1"></rect>
            </g>
            <g transform="translate(12,24)" fill="#000000">
                <rect width="1" height="1"></rect>
            </g>
            <g transform="translate(13,24)" fill="#000000">
                <rect width="1" height="1"></rect>
            </g>
            <g transform="translate(16,24)" fill="#000000">
                <rect width="1" height="1"></rect>
            </g>
            <g transform="translate(17,24)" fill="#000000">
                <rect width="1" height="1"></rect>
            </g>
            <g transform="translate(21,24)" fill="#000000">
                <rect width="1" height="1"></rect>
            </g>
            <g transform="translate(24,24)" fill="#000000">
                <rect width="1" height="1"></rect>
            </g>
        </g>
    </svg>
    <rect width="23" height="23" fill="none" rx="1.5" ry="1.5" x="0.5" y="0.5" stroke="black" stroke-width="1"></rect>
</svg>